<?xml version="1.0" encoding="iso-8859-1"?>
<!-- Generator: Adobe Illustrator 19.0.0, SVG Export Plug-In . SVG Version: 6.00 Build 0)  -->
<svg xmlns="http://www.w3.org/2000/svg" xmlns:xlink="http://www.w3.org/1999/xlink" version="1.1" id="Layer_1" x="0px" y="0px" viewBox="0 0 512 512" style="enable-background:new 0 0 512 512;" xml:space="preserve" width="512px" height="512px">
<g>
	<g>
		<path d="M503.248,88.852H8.752C3.918,88.852,0,92.771,0,97.604v316.792c0,4.833,3.918,8.752,8.752,8.752h494.497    c4.833,0,8.752-3.918,8.752-8.752V97.604C512,92.771,508.082,88.852,503.248,88.852z M117.796,405.645H49.009v-239.78h42.108    v143.064c0,4.832,3.918,8.75,8.752,8.75h17.927V405.645z M108.62,300.177v-0.001V165.864h35.855v134.313H108.62z M204.098,405.646    H135.3v-87.967h17.928c4.833,0,8.752-3.918,8.752-8.752V165.864h42.119V405.646z M290.388,405.646H221.6V165.864h0.001h42.108    v143.064c0,4.833,3.918,8.752,8.752,8.752h17.927V405.646z M281.213,300.177v-0.001V165.864h35.855v134.313H281.213z     M376.69,405.646h-68.798v-87.967h17.928c4.833,0,8.752-3.918,8.752-8.752V165.864h15.44v143.064c0,4.833,3.918,8.752,8.752,8.752    h17.927V405.646z M367.514,300.177v-0.001V165.864h35.855v134.313H367.514z M462.991,405.646h-68.798v-0.001v-87.965h17.928    c4.833,0,8.752-3.918,8.752-8.752V165.864h42.119V405.646z M494.497,405.645h-14.003V157.113c0-4.833-3.918-8.752-8.752-8.752    H40.257c-4.833,0-8.752,3.918-8.752,8.752v248.533H17.503v-299.29h476.994V405.645z" fill="#FFFFFF"/>
	</g>
</g>
<g>
</g>
<g>
</g>
<g>
</g>
<g>
</g>
<g>
</g>
<g>
</g>
<g>
</g>
<g>
</g>
<g>
</g>
<g>
</g>
<g>
</g>
<g>
</g>
<g>
</g>
<g>
</g>
<g>
</g>
</svg>
