<svg id="Laag_1" data-name="Laag 1" xmlns="http://www.w3.org/2000/svg" viewBox="0 0 626.47 468.01"><defs><style>.cls-1,.cls-2{fill:none;stroke-miterlimit:10;stroke-width:2.71px;}.cls-1{stroke:#00ebd2;}.cls-2{stroke:#e400eb;}.cls-3{fill:#00ebd2;}.cls-4{fill:#fff;}</style></defs><title>logo</title><polygon class="cls-1" points="295.08 429.14 176.81 224.28 58.53 19.42 295.08 19.42 531.64 19.42 413.36 224.28 295.08 429.14"/><polygon class="cls-2" points="295.08 465.27 31.44 1.35 558.73 1.35 295.08 465.27"/><path class="cls-3" d="M120.08,173.49H67.95a18.09,18.09,0,0,0-2,5.42,13.37,13.37,0,0,0-.23,5.22H84.22l-2.5,12L63,197l-2,9.39,51.76.38L109,225.14H16.34l19.93-95.45h92.67ZM106.9,222.36l2.6-12.46H58.33q-.36-5.17,3-16.39H79.58l1.34-6.42H62.43a20.2,20.2,0,0,1,.17-5,44.89,44.89,0,0,1,1-5.27q.9-3.83,1.2-5.27l1-.86h51.84L125.57,133H38.27L19.6,222.36ZM81,138.8l-37.72.29-6.81,31.24H35.16l6.94-33.25q13.27-.19,39.19.48Z" transform="translate(-13.07 -7.73)"/><path class="cls-3" d="M152.37,225.33H113.08l20.22-95.45h39ZM150,222.55l18.78-89.89H135.12l-18.78,89.89ZM152.29,139H140.6q-2.2,8.24-5.72,25.11t-5.74,25.2h-.86l10.49-52a130,130,0,0,1,13.8.48Z" transform="translate(-13.07 -7.73)"/><path class="cls-3" d="M261.87,179.14a63.58,63.58,0,0,1-11.24,22.14,61.17,61.17,0,0,1-20,16.82,53.38,53.38,0,0,1-25.25,6.18q-12,0-20.43-5a34.65,34.65,0,0,1-14.67-17.15,40.52,40.52,0,0,1-1.75-24q5.24-25.11,29.18-39.67a53,53,0,0,1,27.7-7.38q11,0,18.38,4.22,14.57,8.24,17.41,21.27-5.12,2.49-14.91,7.86t-14.59,7.67q-2.43-4.89-7.12-4.89a8.39,8.39,0,0,0-1.77.19,13.56,13.56,0,0,0-7.43,6.18q-.32,1.55-.57,3.19a2.16,2.16,0,0,0,.76,2.32ZM258,181.92H212.9a3.46,3.46,0,0,1-1.26-3.16l.19-3.64A17.32,17.32,0,0,1,216,168.6a12.9,12.9,0,0,1,6.15-3.74,12.45,12.45,0,0,1,3.05-.38,10.6,10.6,0,0,1,8.25,3.64q8.26-4.22,24.13-13.22-2.36-4.79-2.84-5.65a14.87,14.87,0,0,0-4.06-4.89q-10.43-10.16-26.92-10.16a47.22,47.22,0,0,0-14.47,2.3,56.28,56.28,0,0,0-21.49,13.19q-10.09,9.55-14.2,20.48a52.17,52.17,0,0,0-2.1,7.29q-3.43,16.4,6.23,31.66a37.51,37.51,0,0,0,28.66,12.38,47.92,47.92,0,0,0,12.53-1.73Q232,216,243.33,205.31T258,181.92Zm-9.86,9.58Q244.94,199.17,236,206a51.23,51.23,0,0,1-17,8.72q-.59.09-4.46,1.15a19.61,19.61,0,0,1-4.45.67,15.29,15.29,0,0,1-1.71-.1l.26-1.25a61.24,61.24,0,0,0,21.76-7.38q11.56-6.71,16.56-16.87Z" transform="translate(-13.07 -7.73)"/><path class="cls-3" d="M334.58,225.62H308.8L314.5,197l-27-.38-6.45,29H256.38l20.3-95.35h77.81Zm-2.1-2.78,18.65-89.31H278.59l-18.66,89.31h18.78l6.56-29.13h32.3l.68.87-5.9,28.27Zm2.71-35h-1.34l9.68-47.72-27.86-.57.42-2h29.61q-2.22,12.46-4.88,25.2T335.18,187.86Z" transform="translate(-13.07 -7.73)"/><path class="cls-3" d="M434.14,169.65h-25.2l-11.87,54.53h-28L379.92,170l-27.52-.38,8.39-40.15h81.74Zm-1.91-2.78,7.13-34.11H363l-7.13,34.11,27.52.38L372.54,221.4H395l11.21-53.66.85-.86Zm-21.39-28.37H368.2a25.1,25.1,0,0,0-1.55,5.85,25.25,25.25,0,0,1-1.56,5.85h-1.34l2.8-13.42H411.2Z" transform="translate(-13.07 -7.73)"/><path class="cls-3" d="M465.54,225.33H426.25l20.22-95.45h39Zm-2.39-2.78,18.77-89.89H448.29l-18.77,89.89ZM465.46,139H453.77q-2.2,8.24-5.72,25.11t-5.74,25.2h-.86l10.49-52a130,130,0,0,1,13.79.48Z" transform="translate(-13.07 -7.73)"/><path class="cls-3" d="M575.84,173.49H523.71a18.07,18.07,0,0,0-2,5.42,13.36,13.36,0,0,0-.23,5.22H540l-2.5,12L518.8,197l-2,9.39,51.76.38-3.84,18.4H472.09L492,129.69H584.7Zm-13.18,48.87,2.6-12.46H514.09q-.36-5.17,3-16.39h18.21l1.34-6.42H518.18a20.26,20.26,0,0,1,.17-5,45,45,0,0,1,1-5.27q.9-3.83,1.2-5.27l1-.86h51.84L581.33,133H494l-18.68,89.41ZM536.8,138.8l-37.72.29-6.81,31.24h-1.34l6.95-33.25q13.27-.19,39.19.48Z" transform="translate(-13.07 -7.73)"/><path class="cls-3" d="M629,204.06a41.92,41.92,0,0,1-9.81,12.55q-6.82,6-13.77,7.67a37.32,37.32,0,0,1-8.25,1,24.72,24.72,0,0,1-16.43-5.75q-7.32-6.23-6.46-15.44l19.93-16.47q-7.58-9.58-9.69-14.18A23.82,23.82,0,0,1,583.12,156,36.12,36.12,0,0,1,593,140.33a35.47,35.47,0,0,1,15.92-9.49,32.79,32.79,0,0,1,8.08-1.05q13.32,0,19.84,11,2.93,4.79,2.72,8.53l-20.78,17.35q7.44,8.43,10.15,13.8a24.76,24.76,0,0,1,2.48,16.58A30.76,30.76,0,0,1,629,204.06Zm-.37-7.38q1.7-8.14-3.21-16.29Q623.54,177.22,615,167a127.26,127.26,0,0,1,10.39-9.39l11.1-9.1-1.95-5.37a13.42,13.42,0,0,0-3.29-4.89q-5.8-5.27-15.1-5.27a29,29,0,0,0-14.29,3.74,33.62,33.62,0,0,0-10.73,9.63,32.87,32.87,0,0,0-5.93,12.79q-1.58,7.57,3.39,15.43l9.82,12.65-19.54,16.48a5.58,5.58,0,0,0-1.15,2.3,7.63,7.63,0,0,0,.82,4.79l2.53,4.41q6.37,7.09,16.92,7.09a29.45,29.45,0,0,0,11.73-2.49,29.8,29.8,0,0,0,12.26-9.58A31.85,31.85,0,0,0,628.59,196.68Zm1.77-48.87-3.59,3.45q-2.45,2.11-4,1.82.24-1.14,2.94-3t2.9-2.86q.24-1.14-1.17-2.19-7.59-5.9-13.91-5.9a16.45,16.45,0,0,0-5.26.86q1.4-2.11,5.48-2.4Q628,138.22,630.36,147.81Zm-8.81,50.89a5.39,5.39,0,0,0,.63-1.63,8.66,8.66,0,0,0-.2-3.4,8.47,8.47,0,0,1-.28-3,3.5,3.5,0,0,1,.94-1.73,10.84,10.84,0,0,1,1,7.76q-1.34,6.42-8.46,14.37a25.1,25.1,0,0,1-6.26,3.83q-.42.19-6.52,2.3-.36-.1-.4-.38l.12-.58a1.81,1.81,0,0,0,.31-.58,22.53,22.53,0,0,0,11.58-6A29.26,29.26,0,0,0,621.55,198.69Z" transform="translate(-13.07 -7.73)"/><path class="cls-3" d="M252.35,322.89a42,42,0,0,1-9.81,12.55q-6.82,6-13.77,7.67a37.35,37.35,0,0,1-8.25,1,24.72,24.72,0,0,1-16.43-5.75q-7.33-6.23-6.46-15.44l19.93-16.47q-7.58-9.58-9.69-14.18a23.82,23.82,0,0,1-1.36-17.34,36.11,36.11,0,0,1,9.85-15.72,35.46,35.46,0,0,1,15.92-9.49,32.76,32.76,0,0,1,8.08-1.05q13.32,0,19.83,11,2.93,4.79,2.72,8.53l-20.78,17.35q7.44,8.43,10.15,13.8a24.77,24.77,0,0,1,2.48,16.58A30.85,30.85,0,0,1,252.35,322.89Zm-.38-7.38q1.7-8.14-3.21-16.29-1.83-3.16-10.42-13.42a127.33,127.33,0,0,1,10.39-9.39l11.1-9.1-1.94-5.37a13.43,13.43,0,0,0-3.29-4.89q-5.8-5.27-15.1-5.27a29,29,0,0,0-14.29,3.74,33.64,33.64,0,0,0-10.73,9.63,32.87,32.87,0,0,0-5.93,12.79q-1.58,7.57,3.39,15.43L221.76,306,202.22,322.5a5.58,5.58,0,0,0-1.15,2.3,7.63,7.63,0,0,0,.82,4.79l2.53,4.41q6.37,7.09,16.92,7.09a29.45,29.45,0,0,0,11.73-2.49A29.8,29.8,0,0,0,245.32,329,31.85,31.85,0,0,0,252,315.51Zm1.77-48.87-3.6,3.45q-2.45,2.11-4,1.82.24-1.14,2.94-3T252,266q.24-1.14-1.17-2.19-7.59-5.9-13.91-5.9a16.46,16.46,0,0,0-5.26.86q1.4-2.11,5.48-2.4Q251.44,257.05,253.75,266.63Zm-8.81,50.89a5.39,5.39,0,0,0,.63-1.63,8.66,8.66,0,0,0-.2-3.4,8.49,8.49,0,0,1-.28-3,3.5,3.5,0,0,1,.93-1.72,10.83,10.83,0,0,1,1,7.76q-1.34,6.42-8.46,14.37a25.13,25.13,0,0,1-6.26,3.83q-.42.19-6.52,2.3c-.24-.06-.38-.19-.4-.38l.12-.58a1.82,1.82,0,0,0,.31-.57,22.53,22.53,0,0,0,11.58-6A29.25,29.25,0,0,0,244.94,317.52Z" transform="translate(-13.07 -7.73)"/><path class="cls-3" d="M368.24,248.9l-.8,2-72.88,92-50,.38q12.41-17.19,35-45.14-1.85-8.14-7.2-24.72-5.17-16.1-7-24.53Zm-5.71,3.45H269.1l14.31,45.38-33.26,42.59,43.16-.19Zm-67.27,5.56H279.44l-.42,2q2.15,6.23,5.76,18.78a.87.87,0,0,1-.75.38,1.73,1.73,0,0,0-.86,0q-2.6-7.76-6.76-22.71h19.17Z" transform="translate(-13.07 -7.73)"/><path class="cls-3" d="M428.7,344.35H349l19.9-95.25,34.3,50,11.35-50.22h34.12Zm-1.82-2.78,18.67-89.41H416.23l-11.67,54q-7.25-9.33-17.61-24.44l-17.27-25.11-17.74,84.91Zm-5.15-7.47h-25l.26-1.25a112.11,112.11,0,0,1,11.51-.48h11.59l6.61-28h.86Z" transform="translate(-13.07 -7.73)"/><path class="cls-3" d="M528.15,288.48h-25.2L491.08,343h-28l10.83-54.14-27.52-.38,8.39-40.15h81.74Zm-1.91-2.78,7.13-34.11H457l-7.13,34.11,27.52.38-10.83,54.14H489l11.21-53.66.85-.86Zm-21.39-28.37H462.21a25.1,25.1,0,0,0-1.56,5.85,25.2,25.2,0,0,1-1.56,5.85h-1.34l2.8-13.42h44.66Z" transform="translate(-13.07 -7.73)"/><path class="cls-3" d="M598.39,344.45H572.61l5.7-28.65-27-.38-6.45,29H520.19l20.3-95.35h77.81Zm-2.1-2.78,18.65-89.31H542.4l-18.65,89.31h18.78l6.56-29.13h32.3l.68.86-5.9,28.27Zm2.71-35h-1.34L607.33,259l-27.86-.58.42-2H609.5q-2.22,12.46-4.88,25.2T599,306.69Z" transform="translate(-13.07 -7.73)"/><path class="cls-4" d="M116.81,168.38H64.68a18.09,18.09,0,0,0-2,5.42,13.37,13.37,0,0,0-.23,5.22H81l-2.5,12-18.67.86-2,9.39,51.76.38L105.74,220H13.07L33,124.58h92.67Zm-13.18,48.87,2.6-12.46H55.06q-.36-5.17,3-16.39H76.31L77.65,182H59.16a20.2,20.2,0,0,1,.17-5,44.89,44.89,0,0,1,1-5.27q.9-3.83,1.2-5.27l1-.86h51.84l7.89-37.76H35L16.33,217.25ZM77.77,133.69,40.05,134l-6.81,31.24H31.9L38.84,132q13.27-.19,39.19.48Z" transform="translate(-13.07 -7.73)"/><path class="cls-4" d="M149.11,220.22H109.82L130,124.77h39Zm-2.39-2.78,18.78-89.89H131.85l-18.78,89.89ZM149,133.88H137.33q-2.2,8.24-5.72,25.11t-5.74,25.2H125l10.49-52a130,130,0,0,1,13.8.48Z" transform="translate(-13.07 -7.73)"/><path class="cls-4" d="M258.61,174a63.58,63.58,0,0,1-11.24,22.14,61.17,61.17,0,0,1-20,16.82,53.38,53.38,0,0,1-25.25,6.18q-12,0-20.43-5A34.65,34.65,0,0,1,167,197a40.52,40.52,0,0,1-1.75-24q5.24-25.11,29.18-39.67a53,53,0,0,1,27.7-7.38q11,0,18.38,4.22,14.57,8.24,17.41,21.27Q252.83,154,243,159.37T228.44,167q-2.43-4.89-7.12-4.89a8.39,8.39,0,0,0-1.77.19,13.56,13.56,0,0,0-7.43,6.18q-.32,1.55-.57,3.19a2.16,2.16,0,0,0,.76,2.32Zm-3.84,2.78H209.63a3.46,3.46,0,0,1-1.26-3.16l.19-3.64a17.32,17.32,0,0,1,4.14-6.52,12.9,12.9,0,0,1,6.15-3.74,12.45,12.45,0,0,1,3.05-.38,10.6,10.6,0,0,1,8.25,3.64q8.26-4.22,24.13-13.22-2.36-4.79-2.84-5.65a14.87,14.87,0,0,0-4.06-4.89q-10.43-10.16-26.92-10.16a47.22,47.22,0,0,0-14.47,2.3,56.28,56.28,0,0,0-21.49,13.19q-10.09,9.55-14.2,20.48a52.17,52.17,0,0,0-2.1,7.29q-3.43,16.4,6.23,31.66a37.51,37.51,0,0,0,28.66,12.38,47.92,47.92,0,0,0,12.53-1.73q13.14-3.75,24.44-14.46T254.77,176.81Zm-9.86,9.58q-3.23,7.67-12.13,14.47a51.23,51.23,0,0,1-17,8.72q-.59.09-4.46,1.15a19.61,19.61,0,0,1-4.45.67,15.29,15.29,0,0,1-1.71-.1l.26-1.25a61.24,61.24,0,0,0,21.76-7.38q11.56-6.71,16.56-16.87Z" transform="translate(-13.07 -7.73)"/><path class="cls-4" d="M331.31,220.51H305.53l5.7-28.65-27-.38-6.45,29H253.11l20.3-95.35h77.81Zm-2.1-2.78,18.65-89.31H275.32l-18.66,89.31h18.78L282,188.6h32.3l.68.87-5.9,28.27Zm2.71-35h-1.34L340.25,135l-27.86-.57.42-2h29.61q-2.22,12.46-4.88,25.2T331.91,182.75Z" transform="translate(-13.07 -7.73)"/><path class="cls-4" d="M430.88,164.54h-25.2L393.8,219.07h-28l10.83-54.14-27.52-.38,8.39-40.15h81.74ZM429,161.76l7.13-34.11H359.71l-7.13,34.11,27.52.38-10.83,54.14H391.7l11.21-53.66.85-.86ZM407.58,133.4H364.93a25.1,25.1,0,0,0-1.55,5.85,25.25,25.25,0,0,1-1.56,5.85h-1.34l2.8-13.42h44.66Z" transform="translate(-13.07 -7.73)"/><path class="cls-4" d="M462.27,220.22H423l20.22-95.45h39Zm-2.39-2.78,18.77-89.89H445l-18.77,89.89Zm2.31-83.56H450.5q-2.2,8.24-5.72,25.11T439,184.19h-.86l10.49-52a130,130,0,0,1,13.79.48Z" transform="translate(-13.07 -7.73)"/><path class="cls-4" d="M572.57,168.38H520.44a18.07,18.07,0,0,0-2,5.42,13.36,13.36,0,0,0-.23,5.22h18.49l-2.5,12-18.68.86-2,9.39,51.76.38L561.49,220H468.83l19.94-95.45h92.67Zm-13.18,48.87,2.6-12.46H510.82q-.36-5.17,3-16.39h18.21l1.34-6.42H514.92a20.26,20.26,0,0,1,.17-5,45,45,0,0,1,1-5.27q.9-3.83,1.2-5.27l1-.86h51.84l7.89-37.76h-87.3l-18.68,89.41Zm-25.86-83.56-37.72.29L489,165.21h-1.34L494.6,132q13.27-.19,39.19.48Z" transform="translate(-13.07 -7.73)"/><path class="cls-4" d="M625.7,198.95a41.92,41.92,0,0,1-9.81,12.55q-6.82,6-13.77,7.67a37.32,37.32,0,0,1-8.25,1,24.72,24.72,0,0,1-16.43-5.75q-7.32-6.23-6.46-15.44l19.93-16.47q-7.58-9.58-9.69-14.18a23.82,23.82,0,0,1-1.36-17.34,36.12,36.12,0,0,1,9.85-15.72,35.47,35.47,0,0,1,15.92-9.49,32.79,32.79,0,0,1,8.08-1.05q13.32,0,19.84,11,2.93,4.79,2.72,8.53l-20.78,17.35q7.44,8.43,10.15,13.8A24.76,24.76,0,0,1,628.12,192,30.76,30.76,0,0,1,625.7,198.95Zm-.37-7.38q1.7-8.14-3.21-16.29-1.83-3.16-10.42-13.42a127.26,127.26,0,0,1,10.39-9.39l11.1-9.1L631.24,138a13.42,13.42,0,0,0-3.29-4.89q-5.8-5.27-15.1-5.27a29,29,0,0,0-14.29,3.74,33.62,33.62,0,0,0-10.73,9.63A32.87,32.87,0,0,0,581.9,154q-1.58,7.57,3.39,15.43l9.82,12.65-19.54,16.48a5.58,5.58,0,0,0-1.15,2.3,7.63,7.63,0,0,0,.82,4.79l2.53,4.41q6.37,7.09,16.92,7.09a29.45,29.45,0,0,0,11.73-2.49,29.8,29.8,0,0,0,12.26-9.58A31.85,31.85,0,0,0,625.32,191.57Zm1.77-48.87-3.59,3.45q-2.45,2.11-4,1.82.24-1.14,2.94-3t2.9-2.86q.24-1.14-1.17-2.19-7.59-5.9-13.91-5.9a16.45,16.45,0,0,0-5.26.86q1.4-2.11,5.48-2.4Q624.78,133.11,627.09,142.69Zm-8.81,50.89a5.39,5.39,0,0,0,.63-1.63,8.66,8.66,0,0,0-.2-3.4,8.47,8.47,0,0,1-.28-3,3.5,3.5,0,0,1,.94-1.73,10.84,10.84,0,0,1,1,7.76Q619,198,611.87,205.94a25.1,25.1,0,0,1-6.26,3.83q-.42.19-6.52,2.3-.36-.1-.4-.38l.12-.58a1.81,1.81,0,0,0,.31-.58,22.53,22.53,0,0,0,11.58-6A29.26,29.26,0,0,0,618.29,193.58Z" transform="translate(-13.07 -7.73)"/><path class="cls-4" d="M249.09,317.77a42,42,0,0,1-9.81,12.55q-6.82,6-13.77,7.67a37.35,37.35,0,0,1-8.25,1,24.72,24.72,0,0,1-16.43-5.75q-7.33-6.23-6.46-15.44l19.93-16.47q-7.58-9.58-9.69-14.18a23.82,23.82,0,0,1-1.36-17.34A36.11,36.11,0,0,1,213.09,254,35.46,35.46,0,0,1,229,244.56a32.76,32.76,0,0,1,8.08-1.05q13.32,0,19.83,11,2.93,4.79,2.72,8.53L238.88,280.4q7.44,8.43,10.15,13.8a24.77,24.77,0,0,1,2.48,16.58A30.85,30.85,0,0,1,249.09,317.77Zm-.38-7.38q1.7-8.14-3.21-16.29-1.83-3.16-10.42-13.42a127.33,127.33,0,0,1,10.39-9.39l11.1-9.1-1.94-5.37a13.43,13.43,0,0,0-3.29-4.89q-5.8-5.27-15.1-5.27A29,29,0,0,0,222,250.41,33.64,33.64,0,0,0,211.22,260a32.87,32.87,0,0,0-5.93,12.79q-1.58,7.57,3.39,15.43l9.82,12.65L199,317.39a5.58,5.58,0,0,0-1.15,2.3,7.63,7.63,0,0,0,.82,4.79l2.53,4.41q6.37,7.09,16.92,7.09a29.45,29.45,0,0,0,11.73-2.49,29.8,29.8,0,0,0,12.26-9.58A31.85,31.85,0,0,0,248.71,310.4Zm1.77-48.87-3.6,3.45q-2.45,2.11-4,1.82.24-1.14,2.94-3t2.9-2.85q.24-1.14-1.17-2.19-7.59-5.9-13.91-5.9a16.46,16.46,0,0,0-5.26.86q1.4-2.11,5.48-2.4Q248.18,251.94,250.49,261.52Zm-8.81,50.89a5.39,5.39,0,0,0,.63-1.63,8.66,8.66,0,0,0-.2-3.4,8.49,8.49,0,0,1-.28-3,3.5,3.5,0,0,1,.93-1.72,10.83,10.83,0,0,1,1,7.76q-1.34,6.42-8.46,14.37A25.13,25.13,0,0,1,229,328.6q-.42.19-6.52,2.3c-.24-.06-.38-.19-.4-.38l.12-.58a1.82,1.82,0,0,0,.31-.57,22.53,22.53,0,0,0,11.58-6A29.25,29.25,0,0,0,241.68,312.41Z" transform="translate(-13.07 -7.73)"/><path class="cls-4" d="M365,243.79l-.8,2-72.88,92-50,.38q12.41-17.19,35-45.14-1.85-8.14-7.2-24.72-5.17-16.1-7-24.53Zm-5.71,3.45H265.83l14.31,45.38-33.26,42.59,43.16-.19ZM292,252.8H276.17l-.42,2q2.15,6.23,5.76,18.78a.87.87,0,0,1-.75.38,1.73,1.73,0,0,0-.86,0q-2.6-7.76-6.76-22.71H292.3Z" transform="translate(-13.07 -7.73)"/><path class="cls-4" d="M425.43,339.24H345.7L365.6,244l34.3,50,11.35-50.22h34.12Zm-1.82-2.78,18.67-89.41H413l-11.67,54q-7.25-9.33-17.61-24.44l-17.27-25.11-17.74,84.91ZM418.47,329h-25l.26-1.25a112.11,112.11,0,0,1,11.51-.48h11.59l6.61-28h.86Z" transform="translate(-13.07 -7.73)"/><path class="cls-4" d="M524.88,283.37h-25.2L487.81,337.9h-28l10.83-54.14-27.52-.38,8.39-40.15h81.74ZM523,280.59l7.13-34.11H453.72l-7.13,34.11,27.52.38-10.83,54.14h22.42l11.21-53.66.85-.86Zm-21.39-28.37H458.94a25.1,25.1,0,0,0-1.56,5.85,25.2,25.2,0,0,1-1.56,5.85h-1.34l2.8-13.42h44.66Z" transform="translate(-13.07 -7.73)"/><path class="cls-4" d="M595.13,339.34H569.35l5.7-28.65-27-.38-6.45,29H516.93L537.23,244H615Zm-2.1-2.78,18.65-89.31H539.13l-18.65,89.31h18.78l6.56-29.13h32.3l.68.86-5.9,28.27Zm2.71-35h-1.34l9.68-47.72-27.86-.58.42-2h29.61q-2.22,12.46-4.88,25.2T595.73,301.58Z" transform="translate(-13.07 -7.73)"/></svg>